<svg xmlns="http://www.w3.org/2000/svg" viewBox="0 0 360 62" fill="none" width="360" height="62">
  <defs>
    <linearGradient id="btnGoldGradLight" x1="0%" y1="0%" x2="100%" y2="100%">
      <stop offset="0%" stop-color="#F7BF4A"/>
      <stop offset="28%" stop-color="#E29A12"/>
      <stop offset="58%" stop-color="#C36D0A"/>
      <stop offset="100%" stop-color="#8F4B08"/>
    </linearGradient>
    <filter id="softGlowLight" x="-20%" y="-20%" width="140%" height="140%">
      <feDropShadow dx="0" dy="0" stdDeviation="1" flood-color="#D97706" flood-opacity="0.35"/>
    </filter>
  </defs>

  <g transform="translate(1,1)" filter="url(#softGlowLight)">
    <path d="M24 2 L43 13 L43 35 L24 48 L5 35 L5 13 Z" fill="rgba(246, 184, 83, 0.08)" stroke="url(#btnGoldGradLight)" stroke-width="2.1"/>
    <path d="M24 8 L38 17 L38 31 L24 41 L10 31 L10 17 Z" fill="none" stroke="url(#btnGoldGradLight)" stroke-width="1.2" opacity="0.9"/>
    <path d="M16 21 C18.8 17.2 21.7 18.1 24 21.5 C26.3 18.1 29.2 17.2 32 21 C34 24.1 32.6 28.8 24 34 C15.4 28.8 14 24.1 16 21 Z" fill="url(#btnGoldGradLight)"/>
    <circle cx="19.5" cy="24.5" r="1.7" fill="#FFFFFF"/>
    <circle cx="28.5" cy="24.5" r="1.7" fill="#FFFFFF"/>
    <path d="M24 30 V38" stroke="url(#btnGoldGradLight)" stroke-width="2" stroke-linecap="round"/>
    <path d="M20.5 38 H27.5" stroke="url(#btnGoldGradLight)" stroke-width="2" stroke-linecap="round"/>
    <path d="M24 2.5 L25.2 5.7 L28.5 6.5 L25.2 7.4 L24 10.6 L22.8 7.4 L19.5 6.5 L22.8 5.7 Z" fill="#F6BD3E"/>
  </g>

  <text x="62" y="29" font-family="'Cinzel Decorative', 'Playfair Display', Georgia, serif" font-size="20.5" font-weight="800" letter-spacing="2.1" fill="url(#btnGoldGradLight)" style="paint-order:stroke; stroke:#5c3309; stroke-width:0.35;">THE GRAND ENIGMA</text>
  <text x="63" y="46" font-family="'Plus Jakarta Sans', 'Segoe UI', sans-serif" font-size="9.2" font-weight="700" letter-spacing="3.15" fill="#C26F0E" opacity="1">MURDER MYSTERY DINNER THEATER</text>
</svg>
